Love for All and Sharing is the first step to solving all the problems of humanity.

Website I want to share. 
               
   http://www.scenetime.com
 
 
  Credit to EVERYONE for sharing and seeding back
 especially to SCENETIME.COM where i get all my 
 downloads.


 support www.scenetime.com to grow faster.

                             
                                                            
                                                   

.                 ..................................NFO:....................................
                                                     
                                                   
                                                         
                                                          
                                                           
                                                          
                                                          
                                                          
                                                           
                                                         
                                                          
                                                        
                                                      
                                     
                                                 
                                                   
                                             
                                              
                                                     
                                                      
                                                      
                                                      
                                                    
                                                     
                                                   
                                                     
                                                     
                                                      
                                                     
                                                      
                                                    
                 ARTiCHOKE                        
                                                
                      
                                                        
                                                      
                                                      
                                               
                                          
                                                   
                                            
                                                    
                                                       
                                                        
                                                      
                                                
                                                        
                                                 
                                              
                                                  
                                                
                                                  
                                        

      
                                
      SPRiNTER proudly presents...     
                                
      
 
 McCartneys.Genes.2008.DVDRip.XViD-SPRiNTER   http://www.imdb.com/title/tt0422734/
 Subtitles: N/A

 Date: 2010.08

 Director:Jason S Dennis
 Genre: Comedy


 Plot: An immature Austin rocker wants a baby, but fails to consider the consequences for those around him. 
 

 Cast
 Hamilton von Watts ...  Alex Hays 
 Lisa Sheridan ...  Claudia Robertson 
 Keri Safran ...  Julia Hays (Jules) 
 Spencer Gibb ...  Zeke Scott 
 Ron Livingston ...  Rudolf 





      
                 
      Release notes     
                 
      

 Enjoy!


      
           
     Greetings    
           
      


NTX aAF FiCO HNR CiNEFiLE AEN HUMANiSM


      
           
      Details     
           
      


Format                           : AVI
Format/Info                      : Audio Video Interleave
File size                        : 701 MiB
Duration                         : 1h 23mn
Overall bit rate                 : 1 178 Kbps
Writing application              : Nandub v1.0rc2
Writing library                  : Nandub build 1852/release

Video
ID                               : 0
Format                           : MPEG-4 Visual
Format profile                   : Advanced Simple@L5
Format settings, BVOP            : No
Format settings, QPel            : No
Format settings, GMC             : No warppoints
Format settings, Matrix          : Default (H.263)
Codec ID                         : XVID
Codec ID/Hint                    : XviD
Duration                         : 1h 23mn
Bit rate                         : 1 104 Kbps
Width                            : 576 pixels
Height                           : 320 pixels
Display aspect ratio             : 16:9
Frame rate                       : 23.976 fps
Resolution                       : 8 bits
Colorimetry                      : 4:2:0
Scan type                        : Progressive
Bits/(Pixel*Frame)               : 0.250
Stream size                      : 657 MiB (94%)
Writing library                  : XviD 1.1.2 (UTC 2006-11-01)

Audio
ID                               : 1
Format                           : MPEG Audio
Format version                   : Version 1
Format profile                   : Layer 3
Codec ID                         : 55
Codec ID/Hint                    : MP3
Duration                         : 1h 23mn
Bit rate mode                    : Variable
Bit rate                         : 61.3 Kbps
Minimum bit rate                 : 40.0 Kbps
Channel(s)                       : 1 channel
Sampling rate                    : 48.0 KHz
Stream size                      : 36.4 MiB (5%)
Alignment                        : Aligned on interleaves
Interleave, duration             : 24 ms (0.58 video frame)
Interleave, preload duration     : 394 ms
Writing library                  : LAME3.95 
Encoding settings                : -m m -V 6 -q 3 -lowpass 16 --vbr-old -b 40